# xmcd CD database file
#
# Track frame offsets:
#	150
#	35725
#	70032
#	94035
#	125110
#	150665
#
# Disc length: 2295 seconds
#
# Revision: 0
# Processed by: cddbd v1.5.2PL0 Copyright (c) Steve Scherf et al.
# Submitted via: CDex 1.70beta2
#
DISCID=4c08f506
DTITLE=Anthony Braxton - Composition 113
DYEAR=1983
DGENRE=Jazz
TTITLE0=Section 1
TTITLE1=Section 2
TTITLE2=Section 3
TTITLE3=Section 4
TTITLE4=Section 5
TTITLE5=Section 6
EXTD=YEAR: 1983
EXTT0=
EXTT1=
EXTT2=
EXTT3=
EXTT4=
EXTT5=
PLAYORDER=
